<?xml version="1.0" ?><svg viewBox="0 0 58.23 62.74" xmlns="http://www.w3.org/2000/svg"><defs><style>.cls-1,.cls-2{fill:none;stroke:#373535;stroke-linecap:round;}.cls-1{stroke-miterlimit:10;}.cls-2{stroke-linejoin:round;}</style></defs><title/><g data-name="Layer 2" id="Layer_2"><g data-name="Layer 1" id="Layer_1-2"><line class="cls-1" x1="52.39" x2="52.39" y1="24.28" y2="30.66"/><line class="cls-1" x1="52.39" x2="52.39" y1="16.54" y2="20.66"/><path class="cls-1" d="M15.1,2.05H48.59a3.79,3.79,0,0,1,3.79,3.79v8.77"/><path class="cls-1" d="M5.15,5.85A3.79,3.79,0,0,1,8.95,2.05h2.32"/><line class="cls-1" x1="5.15" x2="5.15" y1="30.66" y2="9.39"/><path class="cls-1" d="M19.87,2.05A1.55,1.55,0,0,1,21.42.5h16.2a1.55,1.55,0,0,1,1.55,1.55"/><path class="cls-1" d="M19.87,49.92a1.55,1.55,0,0,1,1.55-1.55h16.2a1.55,1.55,0,0,1,1.55,1.55"/><path class="cls-1" d="M21.92,51.47h-.51a1.55,1.55,0,0,1-1.55-1.55"/><path class="cls-1" d="M39.17,49.92a1.55,1.55,0,0,1-1.55,1.55h-.45"/><path class="cls-1" d="M58.33,42.85"/><path class="cls-1" d="M22,57.36H3.44A2.94,2.94,0,0,1,.5,54.42V42.48"/><line class="cls-1" x1="42.57" x2="37.01" y1="57.36" y2="57.36"/><path class="cls-1" d="M57.73,42.48V54.42a2.94,2.94,0,0,1-2.94,2.94H46.2"/><line class="cls-1" x1="38.17" x2="41.75" y1="30.66" y2="30.66"/><line class="cls-1" x1="19.94" x2="36.39" y1="30.66" y2="30.66"/><path class="cls-1" d="M8.89,42.85H1.49a1,1,0,0,1-.91-1.38L4.89,31.26a1,1,0,0,1,.91-.61H16.25"/><line class="cls-1" x1="48.78" x2="11.99" y1="42.85" y2="42.85"/><path class="cls-1" d="M45.68,30.66h6.09a1,1,0,0,1,.89.56l5,10.21a1,1,0,0,1-.89,1.43H52.39"/><circle class="cls-2" cx="29.52" cy="16.26" r="9.58"/><circle class="cls-2" cx="29.52" cy="16.26" r="4.4"/><path class="cls-2" d="M29.52,9.39a6.87,6.87,0,0,1,6.87,6.87"/><path class="cls-2" d="M29.52,23.14a6.87,6.87,0,0,1-6.87-6.87"/><line class="cls-2" x1="8.89" x2="15.1" y1="10.51" y2="10.51"/><line class="cls-2" x1="8.89" x2="15.1" y1="13.52" y2="13.52"/><line class="cls-2" x1="13.87" x2="15.1" y1="16.54" y2="16.54"/><line class="cls-2" x1="8.89" x2="12.52" y1="16.54" y2="16.54"/><line class="cls-2" x1="47.56" x2="48.79" y1="16.54" y2="16.54"/><line class="cls-2" x1="42.57" x2="46.2" y1="16.54" y2="16.54"/><rect class="cls-2" height="3.02" width="6.22" x="42.57" y="10.51"/><polyline class="cls-1" points="37.01 48.37 37.01 62.24 22.04 62.24 22.04 48.37"/><line class="cls-1" x1="26.11" x2="26.11" y1="30.66" y2="42.85"/><line class="cls-1" x1="28.38" x2="28.38" y1="30.66" y2="42.85"/><line class="cls-1" x1="30.66" x2="30.66" y1="30.66" y2="42.85"/><line class="cls-1" x1="32.94" x2="32.94" y1="30.66" y2="42.85"/></g></g></svg>