<?xml version="1.0" ?><svg viewBox="0 0 58.65 56.53" xmlns="http://www.w3.org/2000/svg"><defs><style>.cls-1,.cls-2{fill:none;stroke:#373535;stroke-linecap:round;}.cls-1{stroke-miterlimit:10;}.cls-2{stroke-linejoin:round;}</style></defs><title/><g data-name="Layer 2" id="Layer_2"><g data-name="Layer 1" id="Layer_1-2"><line class="cls-1" x1="26.9" x2="31.98" y1="23.85" y2="23.85"/><path class="cls-1" d="M32.34,56H10.86A4.75,4.75,0,0,1,6.1,51.28V28.61a4.78,4.78,0,0,1,.1-1"/><line class="cls-1" x1="37.64" x2="35.85" y1="56.03" y2="56.03"/><path class="cls-1" d="M47.7,44v7.32A4.75,4.75,0,0,1,43,56H41"/><line class="cls-1" x1="47.7" x2="47.7" y1="39.08" y2="41.81"/><line class="cls-1" x1="47.7" x2="47.7" y1="29.75" y2="37.33"/><path class="cls-1" d="M47.7,46.33l5.81,2.91a2.74,2.74,0,0,0,4-2.45V33.09a2.74,2.74,0,0,0-4-2.45L47.7,33.55"/><circle class="cls-2" cx="14.35" cy="14.35" r="13.85"/><circle class="cls-2" cx="14.35" cy="14.35" r="6.36"/><path class="cls-2" d="M14.35,4.42a9.94,9.94,0,0,1,9.94,9.94"/><path class="cls-2" d="M14.35,24.29a9.94,9.94,0,0,1-9.94-9.94"/><circle class="cls-2" cx="44.3" cy="14.35" r="13.85"/><circle class="cls-2" cx="44.3" cy="14.35" r="6.36"/><path class="cls-2" d="M44.3,4.42a9.94,9.94,0,0,1,9.94,9.94"/><path class="cls-2" d="M44.3,24.29a9.94,9.94,0,0,1-9.94-9.94"/><line class="cls-1" x1="26.9" x2="31.98" y1="36.14" y2="36.14"/><line class="cls-1" x1="20.71" x2="24.29" y1="36.14" y2="36.14"/><line class="cls-1" x1="14.41" x2="17.95" y1="36.14" y2="36.14"/><line class="cls-1" x1="10.87" x2="12.64" y1="36.14" y2="36.14"/><circle class="cls-1" cx="12.14" cy="42.54" r="1.41"/><circle class="cls-1" cx="16.57" cy="42.54" r="1.41"/></g></g></svg>