<?xml version="1.0" ?><svg viewBox="0 0 63.44 54.1" xmlns="http://www.w3.org/2000/svg"><defs><style>.cls-1{fill:none;stroke:#373535;stroke-linecap:round;stroke-miterlimit:10;}</style></defs><title/><g data-name="Layer 2" id="Layer_2"><g data-name="Layer 1" id="Layer_1-2"><line class="cls-1" x1="3.76" x2="3.76" y1="42.98" y2="48.79"/><line class="cls-1" x1="3.76" x2="3.76" y1="32.04" y2="37.28"/><line class="cls-1" x1="3.76" x2="3.76" y1="6.85" y2="27.82"/><line class="cls-1" x1="32.16" x2="32.16" y1="38.5" y2="48.79"/><line class="cls-1" x1="32.16" x2="32.16" y1="23.97" y2="35.6"/><line class="cls-1" x1="32.16" x2="32.16" y1="6.85" y2="18.65"/><path class="cls-1" d="M18,2.31H33.32a2.11,2.11,0,0,1,2.11,2.11v.32a2.11,2.11,0,0,1-2.11,2.11h-9"/><path class="cls-1" d="M21.63,6.85h-19A2.11,2.11,0,0,1,.5,4.74V4.42A2.11,2.11,0,0,1,2.61,2.31H14.79"/><path class="cls-1" d="M6.75,2.06V1.85A1.35,1.35,0,0,1,8.11.5H27.82a1.35,1.35,0,0,1,1.35,1.35v.21"/><line class="cls-1" x1="11.07" x2="13.94" y1="49.06" y2="49.06"/><path class="cls-1" d="M17.22,53.6H2.72A2.11,2.11,0,0,1,.61,51.49v-.32a2.11,2.11,0,0,1,2.11-2.11h4"/><path class="cls-1" d="M17.36,49.06H33.42a2.11,2.11,0,0,1,2.11,2.11v.32a2.11,2.11,0,0,1-2.11,2.11H20.63"/><line class="cls-1" x1="46.85" x2="32.26" y1="45.4" y2="45.4"/><path class="cls-1" d="M57.61,43l-1.49,1.5A3,3,0,0,1,54,45.4H50.45"/><path class="cls-1" d="M44.28,10.51H60a3,3,0,0,1,3,3v23a3,3,0,0,1-.87,2.1l-2.71,2.72"/><line class="cls-1" x1="38.83" x2="41.93" y1="10.51" y2="10.51"/><line class="cls-1" x1="32.26" x2="37.02" y1="10.51" y2="10.51"/><rect class="cls-1" height="5.7" rx="1.97" ry="1.97" width="5.7" x="34.74" y="12.95"/><rect class="cls-1" height="5.7" rx="1.97" ry="1.97" width="5.7" x="44.75" y="12.95"/><rect class="cls-1" height="5.7" rx="1.97" ry="1.97" width="5.7" x="54.76" y="12.95"/><line class="cls-1" x1="56.36" x2="60.46" y1="21.21" y2="21.21"/><line class="cls-1" x1="47.6" x2="54.22" y1="21.21" y2="21.21"/><line class="cls-1" x1="34.74" x2="44.75" y1="21.21" y2="21.21"/><rect class="cls-1" height="5.7" rx="1.97" ry="1.97" width="5.7" x="34.74" y="37.28"/><rect class="cls-1" height="5.7" rx="1.97" ry="1.97" width="5.7" x="44.75" y="37.28"/><line class="cls-1" x1="53.47" x2="60.46" y1="34.72" y2="34.72"/><line class="cls-1" x1="41.5" x2="50.91" y1="34.72" y2="34.72"/><line class="cls-1" x1="34.74" x2="38.12" y1="34.72" y2="34.72"/></g></g></svg>