<?xml version="1.0" ?><svg viewBox="0 0 35.99 60.13" xmlns="http://www.w3.org/2000/svg"><defs><style>.cls-1{fill:none;stroke:#373535;stroke-linecap:round;stroke-miterlimit:10;}</style></defs><title/><g data-name="Layer 2" id="Layer_2"><g data-name="Layer 1" id="Layer_1-2"><line class="cls-1" x1="24.85" x2="23.23" y1="12.34" y2="12.34"/><path class="cls-1" d="M25.62,47.92h1.18a3.63,3.63,0,0,0,3.11-1.76l3.22-5.37a3.63,3.63,0,0,0,.52-1.87V21.33a3.63,3.63,0,0,0-.52-1.87L29.92,14.1a3.63,3.63,0,0,0-3.11-1.76"/><line class="cls-1" x1="19.17" x2="22.33" y1="47.92" y2="47.92"/><path class="cls-1" d="M11.17,12.34H9.59A3.63,3.63,0,0,0,6.48,14.1l-3.63,6A3.63,3.63,0,0,0,2.34,22V38.24a3.63,3.63,0,0,0,.52,1.87l3.63,6a3.63,3.63,0,0,0,3.11,1.76h7"/><line class="cls-1" x1="20.29" x2="13.42" y1="12.34" y2="12.34"/><path class="cls-1" d="M9.92,41.37a2.55,2.55,0,0,0,2.18,1.24h2.48"/><path class="cls-1" d="M7,30.75v5.07a2.55,2.55,0,0,0,.36,1.31l1.81,3"/><path class="cls-1" d="M29,27.83V24a2.55,2.55,0,0,0-.36-1.31l-2.26-3.76a2.55,2.55,0,0,0-2.18-1.24H12.1a2.55,2.55,0,0,0-2.18,1.24L7.37,23.13A2.55,2.55,0,0,0,7,24.44v3.39"/><line class="cls-1" x1="28.98" x2="28.98" y1="32" y2="29.92"/><path class="cls-1" d="M16.56,42.61h7.61a2.55,2.55,0,0,0,2.18-1.24l2.26-3.76A2.55,2.55,0,0,0,29,36.3V34"/><rect class="cls-1" height="6" rx="1.86" ry="1.86" width="15.26" x="10.36" y="24.13"/><line class="cls-1" x1="17.99" x2="17.99" y1="26.43" y2="27.83"/><line class="cls-1" x1="10.78" x2="25.65" y1="21.74" y2="21.74"/><line class="cls-1" x1="23.57" x2="25.65" y1="36.04" y2="36.04"/><line class="cls-1" x1="18.22" x2="21.51" y1="36.04" y2="36.04"/><line class="cls-1" x1="14.15" x2="16.56" y1="36.04" y2="36.04"/><line class="cls-1" x1="10.78" x2="12.47" y1="36.04" y2="36.04"/><path class="cls-1" d="M15.35,8.55H28.54A.43.43,0,0,1,29,9V12.9"/><path class="cls-1" d="M7,13.13V9a.43.43,0,0,1,.43-.43h5.39"/><path class="cls-1" d="M7.22,8.55,9.55,4.34A.73.73,0,0,1,10.19,4h9"/><path class="cls-1" d="M15,4"/><line class="cls-1" x1="24.04" x2="21.91" y1="3.96" y2="3.96"/><path class="cls-1" d="M28.79,8.55,26.47,4.34A.73.73,0,0,0,25.83,4H24"/><path class="cls-1" d="M9.86,4,11.59.83A.64.64,0,0,1,12.15.5h8.13"/><path class="cls-1" d="M26.16,4,24.42.83A.64.64,0,0,0,23.86.5H15.73"/><path class="cls-1" d="M15,51.58H28.54a.43.43,0,0,0,.43-.43V47.23"/><line class="cls-1" x1="11.34" x2="13.16" y1="51.58" y2="51.58"/><path class="cls-1" d="M7,47v4.15a.43.43,0,0,0,.43.43H9.86"/><path class="cls-1" d="M7.22,51.58l2.33,4.21a.73.73,0,0,0,.64.38h8.6"/><line class="cls-1" x1="16.98" x2="14.99" y1="56.16" y2="56.16"/><path class="cls-1" d="M28.79,51.58l-2.33,4.21a.73.73,0,0,1-.64.38H20.29"/><path class="cls-1" d="M9.86,56.16l1.73,3.13a.64.64,0,0,0,.56.33h8.13"/><path class="cls-1" d="M26.16,56.16,24.42,59.3a.64.64,0,0,1-.56.33H15.73"/><line class="cls-1" x1="0.5" x2="0.5" y1="25.54" y2="28.38"/><line class="cls-1" x1="0.5" x2="0.5" y1="31.21" y2="34.04"/><line class="cls-1" x1="35.49" x2="35.49" y1="25.54" y2="28.38"/><line class="cls-1" x1="35.49" x2="35.49" y1="31.21" y2="34.04"/></g></g></svg>